<svg xmlns="http://www.w3.org/2000/svg" viewBox="0 0 64 64"><defs><style>.cls-1{fill:#c61e10;}.cls-2{fill:#f43921;}.cls-3{fill:none;}</style></defs><title>marker</title><g id="Layer_2" data-name="Layer 2"><g id="Layer_2-2" data-name="Layer 2"><path class="cls-1" d="M34.67,5.33A18.66,18.66,0,0,0,16,24c0,14,18.67,34.67,18.67,34.67S53.33,38,53.33,24A18.65,18.65,0,0,0,34.67,5.33Zm0,25.34A6.67,6.67,0,1,1,41.33,24,6.67,6.67,0,0,1,34.67,30.67Z"/><rect class="cls-1" x="30.67" y="56" width="4" height="2.67"/><rect class="cls-1" x="30.67" y="5.33" width="4" height="2.67"/><path class="cls-2" d="M30.67,5.33A18.66,18.66,0,0,0,12,24c0,14,18.67,34.67,18.67,34.67S49.33,38,49.33,24A18.65,18.65,0,0,0,30.67,5.33Zm0,25.34A6.67,6.67,0,1,1,37.33,24,6.67,6.67,0,0,1,30.67,30.67Z"/><path class="cls-3" d="M0,0H64V64H0Z"/></g></g></svg>